<?xml version="1.0" standalone="no"?>
<!DOCTYPE svg PUBLIC "-//W3C//DTD SVG 20010904//EN"
 "http://www.w3.org/TR/2001/REC-SVG-20010904/DTD/svg10.dtd">
<svg version="1.0" xmlns="http://www.w3.org/2000/svg"
 width="1536.000000pt" height="1024.000000pt" viewBox="0 0 1536.000000 1024.000000"
 preserveAspectRatio="xMidYMid meet">

<g transform="translate(0.000000,1024.000000) scale(0.100000,-0.100000)"
fill="#000000" stroke="none">
<path d="M7455 8678 c-44 -5 -145 -22 -225 -38 -681 -137 -1270 -578 -1595
-1192 -112 -212 -208 -486 -231 -656 -3 -26 -8 -50 -10 -53 -6 -11 -23 -175
-30 -284 -34 -598 264 -1313 915 -2200 85 -115 180 -244 213 -285 32 -41 120
-156 196 -256 150 -196 235 -303 322 -404 31 -36 66 -78 79 -95 12 -16 42 -52
66 -80 23 -27 120 -140 214 -250 96 -112 188 -210 210 -222 62 -37 121 -40
183 -10 46 23 85 64 304 319 310 362 441 521 623 758 78 102 172 223 209 270
309 387 585 805 777 1175 154 295 255 585 304 869 24 135 29 437 11 586 -66
530 -297 998 -682 1383 -94 94 -144 137 -154 133 -8 -3 -12 -1 -9 4 7 12 -169
144 -282 211 -110 64 -244 131 -338 169 -76 30 -284 94 -340 105 -91 17 -208
36 -241 40 -76 10 -410 12 -489 3z m-98 -34 c-3 -3 -12 -4 -19 -1 -8 3 -5 6 6
6 11 1 17 -2 13 -5z m1733 -1017 c85 -42 76 -214 -23 -412 -82 -166 -220 -342
-466 -595 -220 -226 -210 -214 -205 -256 6 -56 74 -387 119 -584 2 -8 20 -87
39 -175 20 -88 56 -250 81 -360 74 -324 77 -351 50 -408 -17 -36 -127 -154
-168 -181 -38 -25 -47 -15 -114 118 -112 224 -215 406 -225 400 -7 -4 -8 -2
-4 4 10 17 -97 207 -311 555 -75 121 -87 136 -102 125 -9 -7 -48 -42 -86 -78
-39 -36 -91 -83 -115 -105 -25 -23 -72 -65 -105 -95 -77 -69 -174 -156 -342
-304 -73 -65 -133 -123 -133 -129 0 -7 9 -64 20 -127 24 -135 36 -307 26 -374
-9 -58 -75 -139 -110 -134 -22 3 -20 1 -197 323 -111 202 -143 243 -235 297
-314 186 -384 235 -384 269 0 21 83 99 107 100 44 2 123 -3 178 -11 33 -5 80
-12 105 -15 25 -4 54 -8 65 -10 11 -2 54 -9 94 -16 l75 -13 25 34 c99 127 284
345 422 495 25 27 63 70 85 95 21 25 62 71 91 102 29 31 53 62 53 70 0 7 -84
64 -187 125 -550 329 -1068 652 -1071 668 -5 21 84 114 149 155 33 22 58 30
90 30 90 0 737 -141 1267 -276 161 -41 298 -74 303 -74 6 0 87 73 181 163 295
281 455 412 633 518 145 87 262 118 325 86z m77 -109 c-3 -8 -6 -5 -6 6 -1 11
2 17 5 13 3 -3 4 -12 1 -19z m820 -1065 c-3 -10 -5 -4 -5 12 0 17 2 24 5 18 2
-7 2 -21 0 -30z m0 -130 c-2 -21 -4 -6 -4 32 0 39 2 55 4 38 2 -18 2 -50 0
-70z m0 -95 c-3 -8 -6 -5 -6 6 -1 11 2 17 5 13 3 -3 4 -12 1 -19z m-2950
-1330 c-3 -8 -6 -5 -6 6 -1 11 2 17 5 13 3 -3 4 -12 1 -19z"/>
</g>
</svg>
